<?xml version="1.0" ?><!DOCTYPE svg  PUBLIC '-//W3C//DTD SVG 1.1//EN'  'http://www.w3.org/Graphics/SVG/1.1/DTD/svg11.dtd'><svg enable-background="new 0 0 64 64" height="64px" id="Layer_1" version="1.1" viewBox="0 0 64 64" width="64px" xml:space="preserve" xmlns="http://www.w3.org/2000/svg" xmlns:xlink="http://www.w3.org/1999/xlink"><g><g><g><path d="M1.7,34.6c0.5,0.3,1.5,0.7,2.4,0.6c0.8,0,1.3-0.4,1.3-1c0-0.5-0.3-0.9-1.2-1.4c-1.1-0.6-1.9-1.5-1.9-2.7     c0-2.1,1.8-3.5,4.3-3.5c1.1,0,2,0.2,2.5,0.5l-0.7,2.1C8,29,7.3,28.8,6.6,28.8c-0.8,0-1.4,0.4-1.4,1c0,0.5,0.4,0.8,1.1,1.2     c1.1,0.7,2.1,1.6,2.1,2.8c0,2.3-1.9,3.7-4.5,3.6c-1.2,0-2.3-0.3-2.9-0.7L1.7,34.6z" fill="#B4E52C"/></g><g><path d="M9,37l2.9-15h2.9l-1.1,6l0,0.1c0.8-0.9,1.8-1.5,3.1-1.5c1.5,0,2.4,1,2.4,2.7c0,0.5-0.1,1.2-0.2,1.8     L17.9,37h-2.9l1.1-5.8c0.1-0.4,0.1-0.8,0.1-1.2c0-0.6-0.3-1.1-0.9-1.1c-0.9,0-1.9,1.1-2.3,3l-1,5H9z" fill="#B4E52C"/></g><g><path d="M29.9,30.7c0,3.6-2.3,6.7-5.8,6.7c-2.6,0-4-1.8-4-4.1c0-3.6,2.3-6.7,5.9-6.7     C28.6,26.6,29.9,28.6,29.9,30.7z M23,33.3c0,1.1,0.4,1.9,1.4,1.9c1.6,0,2.4-2.8,2.4-4.6c0-0.9-0.3-1.8-1.4-1.8     C23.9,28.9,23,31.6,23,33.3z" fill="#B4E52C"/></g><g><path d="M29.1,41l2-10.4c0.2-1.2,0.5-2.6,0.6-3.6h2.6l-0.2,1h0c0.8-1,1.9-1.6,3.1-1.6c2.1,0,3,1.9,3,3.8     c0,3.6-2.3,7.1-5.7,7.1C34,37.4,33.3,37,33,37h-0.1l-0.8,4H29.1z M33.3,34.8c0.3,0.3,0.7,0.4,1.2,0.4c1.6,0,2.8-2.7,2.8-4.6     c0-0.8-0.3-1.6-1.2-1.6c-1,0-2,1.2-2.3,3L33.3,34.8z" fill="#B4E52C"/></g><g><path d="M40.5,37l2-10h3l-2,10H40.5z M44.3,26c-0.8,0-1.4-0.8-1.4-1.7c0-1,0.7-1.8,1.7-1.8c0.9,0,1.5,0.8,1.5,1.6     C46,25.2,45.2,26,44.3,26L44.3,26z" fill="#B4E52C"/></g><g><path d="M46,37l1.6-8h-1.4l0.4-2h1.4l0.1-0.6c0.2-1.2,0.7-2.5,1.7-3.4c0.8-0.7,1.8-1,2.9-1c0.7,0,1.3,0.1,1.6,0.2     l-0.6,2.3c-0.3-0.1-0.6-0.2-0.9-0.2c-1,0-1.6,1-1.7,2L50.8,27h2l-0.4,2h-2l-1.6,8H46z" fill="#B4E52C"/></g><g><path d="M56.5,27l0.5,4.6c0.1,1,0.2,1.4,0.3,2.4h0c0.2-1,0.4-1.3,0.9-2.4l1.8-4.6H63l-3.6,7.6     c-1.3,2.6-2.5,4.5-3.9,5.8c-1,1-2.3,1.4-2.9,1.6l-0.8-2.5c0.5-0.2,1.1-0.4,1.7-0.8c0.7-0.5,1.3-1.1,1.6-1.8     c0.1-0.1,0.1-0.2,0.1-0.4L53.4,27H56.5z" fill="#B4E52C"/></g></g><g><g><path d="M6.6,26.6c1.1,0,2,0.2,2.5,0.5l-0.7,2.1C8,29,7.3,28.8,6.6,28.8c-0.8,0-1.4,0.4-1.4,1     c0,0.5,0.4,0.8,1.1,1.2c1.1,0.7,2.1,1.6,2.1,2.8c0,2.3-1.9,3.7-4.5,3.6c-1.2,0-2.3-0.3-2.9-0.7l0.7-2.1c0.5,0.3,1.5,0.7,2.4,0.6     c0.8,0,1.3-0.4,1.3-1c0-0.5-0.3-0.9-1.2-1.4c-1.1-0.6-1.9-1.5-1.9-2.7" fill="#8BB43F"/></g><g><path d="M9,37l2.6-11.9l3.2-2.9l-1.1,5.9l0,0c0.8-0.9,1.8-1.5,3.1-1.5c1.5,0,2.4,1,2.4,2.7c0,0.5-0.1,1.2-0.2,1.8     L17.9,37h-2.9l1.1-5.8c0.1-0.4,0.1-0.8,0.1-1.2c0-0.6-0.3-1.1-0.9-1.1c-0.9,0-1.9,1.1-2.3,3l-1,5H9z" fill="#8BB43F"/></g><g><path d="M25.9,26.6c2.7,0,4,2,4,4.1c0,3.6-2.3,6.7-5.8,6.7c-2.6,0-4-1.8-4-4.1 M23,33.3c0,1.1,0.4,1.9,1.4,1.9     c1.6,0,2.4-2.8,2.4-4.6c0-0.9-0.3-1.8-1.4-1.8C23.9,28.9,23,31.6,23,33.3z" fill="#8BB43F"/></g><g><path d="M34.4,27l-0.2,1h0c0.8-1,1.9-1.6,3.1-1.6c2.1,0,3,1.9,3,3.8c0,3.6-2.3,7.1-5.7,7.1C34,37.4,33.3,37,33,37     h-0.1l-0.8,4h-2.9l2-10.6 M33.3,34.8c0.3,0.3,0.7,0.4,1.2,0.4c1.6,0,2.8-2.7,2.8-4.6c0-0.8-0.3-1.6-1.2-1.6c-1,0-2,1.2-2.3,3     L33.3,34.8z" fill="#8BB43F"/></g><g><path d="M40.5,37l2-7.6l3-2.4l-2,10H40.5z M44.6,22.5c0.9,0,1.5,0.7,1.5,1.6c0,1.1-0.8,1.9-1.7,1.9h0     c-0.8,0-1.4-0.8-1.4-1.7" fill="#8BB43F"/></g><g><path d="M52.6,22c0.7,0,1.3,0.1,1.6,0.3l-0.6,2.3c-0.3-0.1-0.6-0.2-0.9-0.2c-1,0-1.6,1-1.7,2L50.8,27h2l-0.4,2h-2     l-1.6,8H46l1.6-8h-1.4l0.4-2h1.4l0.1-0.6" fill="#8BB43F"/></g><g><path d="M56.5,27l0.5,4.5c0.1,1,0.2,1.5,0.3,2.5h0c0.2-1,0.4-1.3,0.9-2.4l1.8-4.6H63l-3.6,7.6     c-1.3,2.6-2.5,4.5-3.9,5.8c-1,1-2.3,1.4-2.9,1.6l-0.8-2.5c0.5-0.2,1.1-0.4,1.7-0.8c0.7-0.5,1.3-1.1,1.6-1.8     c0.1-0.1,0.1-0.3,0.1-0.5l-0.7-7.2L56.5,27z" fill="#8BB43F"/></g></g></g></svg>