<?xml version="1.0" ?><svg viewBox="0 0 32 32" xmlns="http://www.w3.org/2000/svg"><title/><g data-name="05-Arrow-direction-pointer" id="_05-Arrow-direction-pointer"><path d="M11.427,25.565A13.031,13.031,0,0,0,18.774,31l-.446-2.916a13.789,13.789,0,0,0,8.227-3.532A14.006,14.006,0,0,0,31,16.432l-5.871-.542a8.813,8.813,0,0,1-1.92,5.557,9.693,9.693,0,0,1-5.373,3.418l-.446-2.916A8.8,8.8,0,0,1,11.427,25.565Z" style="fill:none;stroke:#000;stroke-linecap:round;stroke-linejoin:round;stroke-width:2px"/><path d="M9.487,5.659A13.226,13.226,0,0,0,1,9.173l2.8,1.078A13.28,13.28,0,0,0,2.81,19a14.094,14.094,0,0,0,4.964,7.82l3.425-4.7a9.03,9.03,0,0,1-3.97-4.4A9.458,9.458,0,0,1,6.9,11.44l2.8,1.078A8.426,8.426,0,0,1,9.487,5.659Z" style="fill:none;stroke:#000;stroke-linecap:round;stroke-linejoin:round;stroke-width:2px"/><path d="M28.064,13.964a12.613,12.613,0,0,0,1.127-8.958L26.839,6.847A13.706,13.706,0,0,0,19.6,1.639,14.986,14.986,0,0,0,14.931,1a15.243,15.243,0,0,0-4.73.93l2.453,5.253a9.449,9.449,0,0,1,2.779-1.061,9.96,9.96,0,0,1,3.1-.1,9.812,9.812,0,0,1,5.714,2.846L21.89,10.718A8.85,8.85,0,0,1,28.064,13.964Z" style="fill:none;stroke:#000;stroke-linecap:round;stroke-linejoin:round;stroke-width:2px"/></g></svg>