<?xml version="1.0" ?><svg viewBox="0 0 32 32" xmlns="http://www.w3.org/2000/svg"><title/><g data-name="Layer 2" id="Layer_2"><path d="M28.5,9.53v0a.36.36,0,0,0-.06-.2s0,0,0,0L25,3.74a.51.51,0,0,0-.43-.24H7.43A.51.51,0,0,0,7,3.74L3.57,9.28v0a.33.33,0,0,0-.06.19v0h0v2.33a1.86,1.86,0,0,0,.86,1.6V28a.5.5,0,0,0,.5.5H27.14a.5.5,0,0,0,.5-.5V13.46a1.85,1.85,0,0,0,.86-1.59V9.54ZM7.71,4.5H24.29L27.1,9H4.9ZM24.07,10v1.83a.79.79,0,0,1-.7.86h-1c-.41,0-.57-.12-.64-.22a2.27,2.27,0,0,1-.06-.64V10Zm-3.43,0v1.83a.79.79,0,0,1-.7.86h-1c-.54,0-.6-.22-.66-.43l0-.07c0-.11,0-.24,0-.36V10Zm-3.43,0v1.83a.79.79,0,0,1-.7.86h-1a.79.79,0,0,1-.7-.86V10Zm-3.42,0v1.83a.8.8,0,0,1-.7.86h-1a.79.79,0,0,1-.7-.86V10Zm-3.43.8v1a.91.91,0,0,1-.33.71,1,1,0,0,1-.37.15h-1a.79.79,0,0,1-.7-.86V10h2.43ZM5.14,12.71a.8.8,0,0,1-.64-.84V10H6.93v1.83a.88.88,0,0,1-.32.7,1.93,1.93,0,0,1-.9.16H5.25ZM13.71,27.5H8.79V18.35h5Zm12.93,0H14.71l.08-9.65a.55.55,0,0,0-.15-.36.5.5,0,0,0-.35-.14h-6a.5.5,0,0,0-.5.5V27.5H5.36V13.73h.87a1.6,1.6,0,0,0,1-.39.67.67,0,0,0,.11-.07,1.64,1.64,0,0,0,1.26.46h1a1.54,1.54,0,0,0,1-.38.67.67,0,0,0,.14-.09,1.84,1.84,0,0,0,1.25.47h1a1.34,1.34,0,0,0,.4-.06,1.8,1.8,0,0,0,.8-.32,1.71,1.71,0,0,0,.79.32,1.35,1.35,0,0,0,.41.06h1a1.76,1.76,0,0,0,.4-.06,1.51,1.51,0,0,0,.74-.32,1.81,1.81,0,0,0,1.25.38h1a1.86,1.86,0,0,0,1.18-.35,1.61,1.61,0,0,0,.81.32,2.54,2.54,0,0,0,.41,0H23.4l.33,0a1.92,1.92,0,0,0,.89-.31,1.85,1.85,0,0,0,.49.2,1.49,1.49,0,0,0,.66.15h.87Zm.86-15.63a.8.8,0,0,1-.65.84c-.05,0-.1,0-.05,0h-.54a3.51,3.51,0,0,1-.78-.08.89.89,0,0,1-.41-.78V10H27.5Z"/><path d="M23.71,17.35H16.93a.5.5,0,0,0-.5.49l-.07,4.61a.47.47,0,0,0,.14.36.48.48,0,0,0,.36.15h6.85a.5.5,0,0,0,.5-.5V17.85A.5.5,0,0,0,23.71,17.35ZM23.21,22H17.37l.06-3.61h5.78Z"/></g></svg>